# AST/ASF file generated using VICON BodyLanguage
# -----------------------------------------------
:version 1.10
:name VICON
:units
  mass 1.0
  length 0.45
  angle deg
:documentation
   .ast/.asf automatically generated from VICON data using
   VICON BodyBuilder and BodyLanguage model FoxedUp or BRILLIANT.MOD
:root
   order TX TY TZ RX RY RZ
   axis XYZ
   position 0 0 0  
   orientation 0 0 0 
:bonedata
  begin
     id 1 
     name lhipjoint
     direction 0.678564 -0.644259 0.352817 
     length 2.99514 
     axis 0 0 0  XYZ
  end
  begin
     id 2 
     name lfemur
     direction 0.34202 -0.939693 0  
     length 7.29983  
     axis 0 0 20  XYZ
    dof rx ry rz
    limits (-160.0 20.0)
           (-70.0 70.0)
           (-60.0 70.0)
  end
  begin
     id 3 
     name ltibia
     direction 0.34202 -0.939693 0   
     length 8.59502   
     axis 0 0 20   XYZ
    dof rx
    limits (-10.0 170.0)
  end
  begin
     id 4 
     name lfoot
     direction 0.256607 -0.705022 0.661133   
     length 2.92136   
     axis -90 7.62852e-016 20   XYZ
    dof rx rz
    limits (-45.0 90.0)
           (-70.0 20.0)
  end
  begin
     id 5 
     name ltoes
     direction 1.53673e-011 -4.22167e-011 1   
     length 1.31421   
     axis -90 7.62852e-016 20   XYZ
    dof rx
    limits (-90.0 20.0)
  end
  begin
     id 6 
     name rhipjoint
     direction -0.664671 -0.655307 0.358867   
     length 2.94464  
     axis 0 0 0  XYZ 
  end
  begin
     id 7 
     name rfemur
     direction -0.34202 -0.939693 0   
     length 7.1902   
     axis 0 0 -20   XYZ
    dof rx ry rz
    limits (-160.0 20.0)
           (-70.0 70.0)
           (-70.0 60.0)
  end
  begin
     id 8 
     name rtibia
     direction -0.342306 -0.939589 0   
     length 7.92304   
     axis 0 0 -20   XYZ
    dof rx
    limits (-10.0 170.0)
 end
 begin
     id 9 
     name rfoot
     direction -0.135083 -0.371136 0.9187   
     length 2.14777  
     axis -90 -7.62852e-016 -20   XYZ
    dof rx rz
    limits (-45.0 90.0)
           (-20.0 70.0)
  end
  begin
     id 10 
     name rtoes
     direction -1.53535e-011 -4.21537e-011 1   
     length 1.05997   
     axis -90 -7.62852e-016 -20   XYZ
    dof rx
    limits (-90.0 20.0)
  end
  begin
     id 11 
     name lowerback
     direction -0.0195507 0.995133 0.0965771   
     length 2.09792   
     axis 0 0 0   XYZ
    dof rx ry rz
    limits (-20.0 45.0)
           (-30.0 30.0)
           (-30.0 30.0)
  end
  begin
     id 12 
     name upperback
     direction 0.00551419 0.999637 0.0263729   
     length 2.10514   
     axis 0 0 0   XYZ
    dof rx ry rz
    limits (-20.0 45.0)
           (-30.0 30.0)
           (-30.0 30.0)
  end
  begin
     id 13 
     name thorax
     direction 0.0138853 0.999728 -0.0187549   
     length 2.12411   
     axis 0 0 0   XYZ
    dof rx ry rz
    limits (-20.0 45.0)
           (-30.0 30.0)
           (-30.0 30.0)
  end
  begin
     id 14 
     name lowerneck
     direction 0.00575564 0.995441 0.0952053   
     length 2.98955   
     axis 0 0 0   XYZ
    dof rx ry rz
    limits (-20.0 45.0)
           (-30.0 30.0)
           (-30.0 30.0)
  end
  begin
     id 15 
     name upperneck
     direction 0.0362743 0.998452 -0.0421753   
     length 3.03688   
     axis 0 0 0   XYZ
    dof rx ry rz
    limits (-20.0 45.0)
           (-30.0 30.0)
           (-30.0 30.0)
  end
  begin
     id 16
     name head
     direction -0.0138164 0.799054 0.6011  
     length 1.47017  
     axis 0 0 0   XYZ
    dof rx ry rz
    limits (-20.0 45.0)
           (-30.0 30.0)
           (-30.0 30.0)
  end
  begin
     id 17 
     name lclavicle
     direction 0.925636 0.378361 -0.006363  
     length 3.33831  
     axis 0 0 0   XYZ
    dof ry rz
    limits (-20.0 10.0)
           (0.0 20.0)
  end
  begin
     id 18 
     name lhumerus
     direction 1 -4.48983e-011 -5.50319e-028   
     length 4.79344   
     axis -180 -30 -90   XYZ
    dof rx ry rz
    limits (-60.0 90.0)
           (-90.0 90.0)
           (-90.0 90.0)
  end
  begin
     id 19
     name lradius
     direction 1 -4.48905e-011 9.20478e-027   
     length 2.94221   
     axis -180 -30 -90   XYZ
    dof rx
    limits (-10.0 170.0)
  end
  begin
     id 20
     name lwrist
     direction 1 -4.4898e-011 2.08228e-026   
     length 1.4711   
     axis -1.38353e-014 90 90   XYZ
    dof ry
    limits (-180.0 0.0)
 end
  begin
     id 21 
     name lhand
     direction 1 -4.48957e-011 4.16456e-026   
     length 0.889984   
     axis -2.65735e-014 90 90   XYZ
    dof rx rz
    limits (-90.0 90.0)
           (-45.0 45.0)
  end
  begin
     id 22 
     name lfingers
     direction 1 -4.49044e-011 8.32913e-026   
     length 0.717528   
     axis -5.3147e-014 90 90   XYZ
    dof rx
    limits (0.0 90.0)
  end
  begin
     id 23
     name lthumb
     direction 0.707107 -6.35171e-011 0.707107   
     length 1.03023   
     axis -90 45 2.85299e-015   XYZ
    dof rx rz
    limits (-45.0 45.0)
           (-45.0 45.0)
  end
  begin
     id 24 
     name rclavicle
     direction -0.892514 0.445149 0.0725343   
     length 3.17271  
     axis 0 0 0   XYZ 
    dof ry rz
    limits (-10.0 20.0)
           (-20.0 0.0)
  end
  begin
     id 25 
     name rhumerus
     direction -1 -4.48952e-011 5.59695e-028  
     length 5.4863   
     axis -180 30 90   XYZ
    dof rx ry rz
    limits (-90.0 60.0)
           (-90.0 90.0)
           (-90.0 90.0)
  end
  begin
     id 26 
     name rradius
     direction -1 -4.48963e-011 1.14146e-026   
     length 3.17201   
     axis -180 30 90   XYZ
    dof rx
    limits (-10.0 170.0)
  end
  begin
     id 27 
     name rwrist
     direction -1 -4.49046e-011 2.08228e-026   
     length 1.58601   
     axis -1.38353e-014 -90 -90   XYZ
    dof ry
    limits (-180.0 0.0)
  end
  begin
     id 28
     name rhand
     direction -1 -4.48815e-011 4.16456e-026   
     length 0.874513   
     axis -2.65735e-014 -90 -90   XYZ
    dof rx rz
    limits (-90.0 90.0)
           (-45.0 45.0)
  end
  begin
     id 29
     name rfingers
     direction -1 -4.48918e-011 8.32913e-026   
     length 0.705055   
     axis -5.3147e-014 -90 -90   XYZ
    dof rx
    limits (0.0 90.0)
  end
  begin
     id 30
     name rthumb
     direction -0.707107 -6.34858e-011 0.707107   
     length 1.01232   
     axis -90 -45 -2.85299e-015   XYZ
    dof rx rz
    limits (-45.0 45.0)
           (-45.0 45.0)
  end
:hierarchy
  begin
    root lhipjoint rhipjoint lowerback
    lhipjoint lfemur
    lfemur ltibia
    ltibia lfoot
    lfoot ltoes
    rhipjoint rfemur
    rfemur rtibia
    rtibia rfoot
    rfoot rtoes
    lowerback upperback
    upperback thorax
    thorax lowerneck lclavicle rclavicle
    lowerneck upperneck
    upperneck head
    lclavicle lhumerus
    lhumerus lradius
    lradius lwrist
    lwrist lhand lthumb
    lhand lfingers
    rclavicle rhumerus
    rhumerus rradius
    rradius rwrist
    rwrist rhand rthumb
    rhand rfingers
  end

#!OML:ASF F:\VICON\USERDATA\INSTALL\rory3\rory3.ASF
:FULLY-SPECIFIED
:DEGREES
842
root 3.60737 18.4739 -0.749167 -6.49812 88.5637 -21.0012
lowerback -9.93425 -1.01985 2.05658
upperback -0.761445 -1.67 2.91664
thorax 4.80886 -0.784116 1.65321
lowerneck -26.1498 -9.30217 5.00335
upperneck 2.92275 42.2711 5.30628
head 41.7888 62.1243 192.591
rclavicle 5.56597e-015 4.77083e-015
rhumerus -109.55 46.5357 -130.262
rradius 97.4554
rwrist 13.0539
rhand -48.7366 -1.79664
rfingers 7.12502
rthumb -21.376 -30.6375
lclavicle 5.56597e-015 4.77083e-015
lhumerus -27.9042 17.4433 35.5876
lradius 123.219
lwrist 18.9317
lhand -12.7874 1.26973
lfingers 7.12502
lthumb 13.2981 30.8255
rfemur -12.9724 18.4653 17.6581
rtibia 12.2911
rfoot -19.2524 -19.562
rtoes -13.7841
lfemur -13.9475 -3.91468 -22.164
ltibia 16.8394
lfoot -3.19721 5.28286
ltoes -10.0418
843
root 3.60848 18.475 -0.747563 -9.16032 88.5522 -23.7598
lowerback -10.0086 -1.00065 2.17351
upperback -0.778618 -1.65975 2.95808
thorax 4.83027 -0.775925 1.63131
lowerneck -25.8957 -9.36853 4.866
upperneck 2.95207 42.1199 5.33715
head 41.8279 62.3667 192.683
rclavicle 3.08116e-015 5.56597e-015
rhumerus -109.154 46.5642 -130.194
rradius 97.2003
rwrist 13.0806
rhand -49.0942 -1.17835
rfingers 7.12502
rthumb -21.7195 -29.9799
lclavicle 3.08116e-015 5.56597e-015
lhumerus -27.7368 18.0161 34.9558
lradius 122.365
lwrist 19.1941
lhand -12.6046 1.46855
lfingers 7.12502
lthumb 13.4743 31.0127
rfemur -13.1256 18.4733 17.7107
rtibia 12.3452
rfoot -19.2075 -19.6189
rtoes -13.6942
lfemur -14.0667 -3.98394 -22.0664
ltibia 16.8575
lfoot -3.13401 5.26791
ltoes -10.0046
844
root 3.61181 18.4743 -0.746671 -9.89259 88.549 -24.6084
lowerback -10.0791 -0.991272 2.23788
upperback -0.837595 -1.65427 2.99334
thorax 4.80712 -0.771276 1.63207
lowerneck -25.5888 -9.41146 4.68388
upperneck 3.02555 42.0825 5.40191
head 41.9804 62.7491 192.826
rclavicle 7.95139e-015 -3.26007e-014
rhumerus -109.015 46.5892 -130.231
rradius 97.0246
rwrist 13.2137
rhand -49.3679 -0.945193
rfingers 7.12502
rthumb -21.9823 -29.7161
lclavicle 7.95139e-015 -3.26007e-014
lhumerus -27.6382 18.4969 34.3219
lradius 121.527
lwrist 19.6705
lhand -12.4746 1.68687
lfingers 7.12502
lthumb 13.5996 31.2227
rfemur -13.2658 18.4542 17.6925
rtibia 12.3382
rfoot -19.1801 -19.6313
rtoes -13.5857
lfemur -14.2069 -4.09014 -22.0237
ltibia 16.888
lfoot -3.05414 5.24125
ltoes -10.0055
845
root 3.61568 18.4747 -0.745524 -9.21577 88.5633 -24.0574
lowerback -10.1266 -0.968647 2.26969
upperback -0.92502 -1.62403 2.99686
thorax 4.74089 -0.755195 1.62181
lowerneck -25.2554 -9.49084 4.52208
upperneck 3.09027 41.9638 5.45543
head 42.0258 63.0228 192.901
rclavicle 3.37934e-015 -1.74931e-014
rhumerus -109.053 46.6085 -130.413
rradius 96.931
rwrist 13.2449
rhand -49.8464 -0.924403
rfingers 7.12502
rthumb -22.4416 -29.6406
lclavicle 3.37934e-015 -1.74931e-014
lhumerus -27.4779 18.9525 33.6607
lradius 120.719
lwrist 20.1556
lhand -12.3557 2.00213
lfingers 7.12502
lthumb 13.7142 31.5302
rfemur -13.3244 18.3684 17.644
rtibia 12.2245
rfoot -19.1318 -19.5459
rtoes -13.6591
lfemur -14.3802 -4.18206 -22.0269
ltibia 16.9715
lfoot -2.96643 5.2291
ltoes -10.0857
846
root 3.61948 18.4758 -0.744366 -11.5412 88.6261 -26.4706
lowerback -10.1553 -0.954447 2.36377
upperback -0.99557 -1.61201 3.00413
thorax 4.68046 -0.746891 1.5781
lowerneck -24.9267 -9.55916 4.34734
upperneck 3.18222 41.9423 5.53401
head 42.1935 63.3979 193.041
rclavicle -5.26779e-015 9.54166e-015
rhumerus -109.099 46.6091 -130.594
rradius 96.8561
rwrist 13.2656
rhand -50.4265 -1.05463
rfingers 7.12502
rthumb -22.9984 -29.7026
lclavicle -5.26779e-015 9.54166e-015
lhumerus -27.1429 19.4544 33.0059
lradius 119.858
lwrist 20.4738
lhand -12.2761 2.44011
lfingers 7.12502
lthumb 13.7909 31.963
rfemur -13.3103 18.3107 17.6731
rtibia 12.0988
rfoot -19.1141 -19.5769
rtoes -13.7379
lfemur -14.5006 -4.28591 -21.9633
ltibia 17.0394
lfoot -2.93991 5.21011
ltoes -10.1054
847
root 3.62369 18.4774 -0.741833 -16.2182 88.6629 -31.2543
lowerback -10.2202 -0.953981 2.48186
upperback -1.0604 -1.6237 3.04922
thorax 4.64697 -0.749644 1.55666
lowerneck -24.6336 -9.5836 4.12402
upperneck 3.28039 42.0211 5.61836
head 42.5101 63.9172 193.282
rclavicle 1.49089e-015 -2.38542e-015
rhumerus -109.181 46.6306 -130.698
rradius 96.904
rwrist 13.1681
rhand -50.5756 -0.947125
rfingers 7.12502
rthumb -23.1414 -29.5772
lclavicle 1.49089e-015 -2.38542e-015
lhumerus -26.7895 20.031 32.3443
lradius 119.019
lwrist 21.0039
lhand -12.0804 2.90878
lfingers 7.12502
lthumb 13.9796 32.4188
rfemur -13.3257 18.274 17.7607
rtibia 11.937
rfoot -18.9968 -19.6376
rtoes -13.9375
lfemur -14.6399 -4.30587 -21.8471
ltibia 17.1092
lfoot -3.01227 5.22484
ltoes -10.0406
848
root 3.63178 18.4789 -0.738977 -18.4857 88.698 -33.6299
lowerback -10.3299 -0.972147 2.51348
upperback -1.11971 -1.65337 3.10031
thorax 4.64708 -0.762876 1.58697
lowerneck -24.3647 -9.59224 3.87747
upperneck 3.34629 42.0483 5.66487
head 42.7263 64.3569 193.459
rclavicle -5.66536e-015 1.35174e-014
rhumerus -109.288 46.6666 -130.747
rradius 97.033
rwrist 12.9896
rhand -50.3755 -0.700494
rfingers 7.12502
rthumb -22.9495 -29.3545
lclavicle -5.66536e-015 1.35174e-014
lhumerus -26.5703 20.6403 31.5914
lradius 118.382
lwrist 21.5497
lhand -11.7047 3.40494
lfingers 7.12502
lthumb 14.3415 32.8896
rfemur -13.3159 18.3672 17.7657
rtibia 11.7466
rfoot -18.9112 -19.7481
rtoes -13.962
lfemur -14.76 -4.28771 -21.7958
ltibia 17.1555
lfoot -3.04221 5.24513
ltoes -10.064
849
root 3.63943 18.48 -0.735544 -19.8978 88.6946 -35.1421
lowerback -10.415 -0.983638 2.50999
upperback -1.19463 -1.66854 3.16209
thorax 4.61827 -0.769782 1.65064
lowerneck -24.0616 -9.60182 3.62233
upperneck 3.41598 42.0601 5.69518
head 42.8219 64.6845 193.538
rclavicle 1.58034e-014 -2.62396e-014
rhumerus -109.303 46.6495 -130.736
rradius 97.0232
rwrist 12.9271
rhand -50.1736 -0.607101
rfingers 7.12502
rthumb -22.7557 -29.2851
lclavicle 1.58034e-014 -2.62396e-014
lhumerus -26.403 21.2757 30.7692
lradius 117.806
lwrist 21.9095
lhand -11.0995 3.60587
lfingers 7.12502
lthumb 14.9246 33.0482
rfemur -13.2785 18.4996 17.7624
rtibia 11.5252
rfoot -18.8725 -19.868
rtoes -13.8855
lfemur -14.8819 -4.25234 -21.7498
ltibia 17.2122
lfoot -3.04009 5.27656
ltoes -10.0395
850
root 3.64749 18.4823 -0.730737 -18.0222 88.7264 -33.3739
lowerback -10.5254 -0.999427 2.39749
upperback -1.26066 -1.67844 3.19922
thorax 4.61521 -0.776148 1.75018
lowerneck -23.7824 -9.63285 3.42757
upperneck 3.44248 41.9153 5.69236
head 42.5957 64.7543 193.356
rclavicle -1.19271e-014 2.54444e-014
rhumerus -109.23 46.5913 -130.627
rradius 96.9931
rwrist 12.882
rhand -49.8991 -0.383422
rfingers 7.12502
rthumb -22.4923 -29.0935
lclavicle -1.19271e-014 2.54444e-014
lhumerus -26.0912 22.0567 29.9512
lradius 117.176
lwrist 22.281
lhand -10.2184 3.73833
lfingers 7.12502
lthumb 15.7733 33.1156
rfemur -13.2674 18.5399 17.6813
rtibia 11.3409
rfoot -18.8545 -19.9225
rtoes -13.7537
lfemur -14.9946 -4.26212 -21.7775
ltibia 17.2321
lfoot -3.06715 5.30033
ltoes -9.96827
851
root 3.6542 18.482 -0.727098 -20.7193 88.7513 -36.1622
lowerback -10.5855 -0.983569 2.45352
upperback -1.33846 -1.66048 3.19727
thorax 4.56523 -0.765524 1.71871
lowerneck -23.4846 -9.70153 3.26242
upperneck 3.45284 41.6398 5.71168
head 42.2272 64.8085 193.03
rclavicle -1.5207e-014 5.96354e-014
rhumerus -109.223 46.4583 -130.582
rradius 97.0553
rwrist 12.7774
rhand -49.7749 -0.163307
rfingers 7.12502
rthumb -22.373 -28.8878
lclavicle -1.5207e-014 5.96354e-014
lhumerus -25.66 22.7162 29.1653
lradius 116.713
lwrist 22.8193
lhand -9.68406 4.14332
lfingers 7.12502
lthumb 16.2879 33.4792
rfemur -13.2541 18.5808 17.7105
rtibia 11.1947
rfoot -18.8723 -20.0001
rtoes -13.4863
lfemur -15.079 -4.2899 -21.7093
ltibia 17.2358
lfoot -3.1156 5.31946
ltoes -9.87079
852
root 3.65922 18.482 -0.723211 -24.3047 88.7535 -39.7988
lowerback -10.5729 -0.966185 2.52848
upperback -1.41431 -1.63975 3.19985
thorax 4.47639 -0.753676 1.68268
lowerneck -23.204 -9.73109 3.03631
upperneck 3.53299 41.6677 5.77653
head 42.4094 65.2233 193.148
rclavicle -2.78299e-015 1.27222e-014
rhumerus -109.312 46.356 -130.623
rradius 97.1117
rwrist 12.6832
rhand -49.7036 0.12677
rfingers 7.12502
rthumb -22.3046 -28.6059
lclavicle -2.78299e-015 1.27222e-014
lhumerus -25.258 23.2649 28.3914
lradius 116.385
lwrist 23.4982
lhand -9.5239 4.54426
lfingers 7.12502
lthumb 16.4421 33.8675
rfemur -13.2096 18.6508 17.7775
rtibia 11.0634
rfoot -18.8684 -20.0803
rtoes -13.2531
lfemur -15.1193 -4.29889 -21.6176
ltibia 17.2367
lfoot -3.10846 5.3512
ltoes -9.80525
853
root 3.66441 18.4837 -0.71935 -24.4591 88.7495 -40.005
lowerback -10.5648 -0.95619 2.52559
upperback -1.49698 -1.61992 3.19571
thorax 4.38504 -0.743805 1.6832
lowerneck -22.9064 -9.74446 2.81231
upperneck 3.63984 41.7845 5.83874
head 42.6618 65.6104 193.337
rclavicle -1.0635e-014 -3.97569e-015
rhumerus -109.478 46.2699 -130.737
rradius 97.1534
rwrist 12.6358
rhand -49.5636 0.0882602
rfingers 7.12502
rthumb -22.1702 -28.6604
lclavicle -1.0635e-014 -3.97569e-015
lhumerus -24.9443 23.7925 27.6201
lradius 116.147
lwrist 23.9554
lhand -9.64852 4.84263
lfingers 7.12502
lthumb 16.3221 34.1757
rfemur -13.1722 18.742 17.7644
rtibia 10.9121
rfoot -18.8557 -20.1076
rtoes -12.9855
lfemur -15.1909 -4.31885 -21.5882
ltibia 17.2796
lfoot -3.08144 5.36437
ltoes -9.97
854
root 3.66805 18.4849 -0.716298 -23.1875 88.7541 -38.7717
lowerback -10.4916 -0.961039 2.50304
upperback -1.61096 -1.61281 3.18744
thorax 4.22539 -0.740966 1.68958
lowerneck -22.5986 -9.76691 2.59272
upperneck 3.71136 41.7889 5.85308
head 42.7248 65.8287 193.419
rclavicle -4.37326e-015 -3.02153e-014
rhumerus -109.797 46.2294 -131.012
rradius 97.1677
rwrist 12.5205
rhand -49.4957 0.169546
rfingers 7.12502
rthumb -22.105 -28.5869
lclavicle -4.37326e-015 -3.02153e-014
lhumerus -24.7219 24.2839 26.8528
lradius 116.064
lwrist 24.1922
lhand -10.0007 5.22308
lfingers 7.12502
lthumb 15.983 34.5837
rfemur -13.1339 18.8532 17.714
rtibia 10.7659
rfoot -18.8325 -20.1716
rtoes -12.893
lfemur -15.2519 -4.29879 -21.6
ltibia 17.3271
lfoot -3.11929 5.37785
ltoes -10.0219
855
root 3.67187 18.485 -0.711899 -23.9538 88.7562 -39.5645
lowerback -10.4005 -0.958575 2.49789
upperback -1.73056 -1.59665 3.1794
thorax 4.04946 -0.733359 1.68797
lowerneck -22.2882 -9.80045 2.39447
upperneck 3.77704 41.7385 5.8839
head 42.6996 66.0357 193.399
rclavicle 1.5704e-014 -1.03368e-014
rhumerus -110.113 46.1813 -131.329
rradius 97.1472
rwrist 12.3479
rhand -49.573 0.203291
rfingers 7.12502
rthumb -22.1792 -28.5443
lclavicle 1.5704e-014 -1.03368e-014
lhumerus -24.4323 24.7845 26.0417
lradius 116.099
lwrist 24.3595
lhand -10.2155 5.85112
lfingers 7.12502
lthumb 15.7761 35.2282
rfemur -13.0934 18.9542 17.721
rtibia 10.6628
rfoot -18.8477 -20.2762
rtoes -12.9685
lfemur -15.279 -4.22907 -21.574
ltibia 17.343
lfoot -3.21358 5.42793
ltoes -9.90014
